<?xml version="1.0" standalone="no"?>
<!DOCTYPE svg PUBLIC "-//W3C//DTD SVG 20010904//EN"
 "http://www.w3.org/TR/2001/REC-SVG-20010904/DTD/svg10.dtd">
<svg version="1.0" xmlns="http://www.w3.org/2000/svg"
 width="109.000000pt" height="108.000000pt" viewBox="0 0 109.000000 108.000000"
 preserveAspectRatio="xMidYMid meet">

<g transform="translate(0.000000,108.000000) scale(0.100000,-0.100000)"
fill="#000000" stroke="none">
<path d="M275 756 c-40 -18 -84 -63 -103 -106 -24 -56 -21 -166 6 -221 56
-115 222 -146 324 -61 89 75 93 270 7 349 -55 50 -167 69 -234 39z m140 -72
c40 -19 65 -73 65 -139 0 -81 -37 -140 -96 -151 -75 -14 -134 52 -134 148 0
126 71 187 165 142z"/>
<path d="M701 628 c-51 -34 -73 -71 -79 -127 -7 -73 24 -133 84 -162 54 -26
131 -23 172 8 34 24 72 98 72 138 0 41 -38 114 -72 139 -18 12 -49 21 -85 24
-48 3 -64 0 -92 -20z m120 -51 c56 -43 51 -156 -7 -188 -32 -17 -74 -2 -92 31
-20 39 -10 129 18 152 26 21 58 23 81 5z"/>
</g>
</svg>
